<?xml version="1.0" encoding="utf-8"?>
<!-- Generator: Adobe Illustrator 23.0.3, SVG Export Plug-In . SVG Version: 6.00 Build 0)  -->
<svg version="1.1" id="Layer_1" xmlns="http://www.w3.org/2000/svg" xmlns:xlink="http://www.w3.org/1999/xlink" x="0px" y="0px"
	 viewBox="0 0 300 300" style="enable-background:new 0 0 300 300;" xml:space="preserve">
<style type="text/css">
</style>
<defs>
    <linearGradient id="MyGradient" x1="0%" y1="100%" x2="100%" y2="100%">
      <stop offset="0%" style="stop-color:rgb(0,0,0);stop-opacity:1" />
      <stop offset="100%" style="stop-color:rgb(224, 115, 58);stop-opacity:1" />
    </linearGradient>
  </defs>
<g fill="url(#MyGradient)"	>
	<path fill="black" d="M56.4,190.73c-1.07-1.54-2.6-2.54-4.6-2.99c1.72-0.97,3.03-2.2,3.92-3.7c0.9-1.5,1.35-3.03,1.35-4.57
		c0-1.07-0.21-2.1-0.64-3.07c-0.43-0.99-1.11-1.85-2.01-2.61c-0.92-0.75-2.06-1.36-3.43-1.83c-1.39-0.46-3.01-0.69-4.92-0.69
		c-2.45,0-4.79,0.38-7.04,1.14c-2.25,0.75-4.25,1.76-5.99,3.04c-1.74,1.28-3.13,2.72-4.15,4.36c-1.03,1.64-1.56,3.35-1.56,5.14
		c0,1.75,0.44,2.99,1.35,3.7c0.89,0.69,2.11,1.06,3.67,1.06c-0.07-0.25-0.21-0.63-0.42-1.14c-0.21-0.51-0.31-1.31-0.31-2.38
		c0-2.2,0.4-4.13,1.21-5.78c0.81-1.65,1.86-3.01,3.15-4.08c1.29-1.07,2.72-1.86,4.31-2.4c1.58-0.53,3.17-0.79,4.75-0.79
		c1.31,0,2.46,0.17,3.43,0.49c0.99,0.33,1.81,0.78,2.46,1.35c0.65,0.57,1.14,1.22,1.47,1.96c0.32,0.74,0.49,1.5,0.49,2.29
		c0,0.97-0.21,1.96-0.64,2.97c-0.43,1.01-1.04,1.93-1.82,2.76c-0.76,0.82-1.67,1.5-2.71,2.04c-1.03,0.53-2.13,0.79-3.29,0.79H43.5
		l2.47-11.67l-5.78,0.78l-7.13,33.09h5.68l4.28-20.13c0.58-0.07,1.17-0.13,1.76-0.15c0.58-0.04,0.96-0.06,1.13-0.06
		c1.21,0,2.19,0.18,2.97,0.54c0.78,0.36,1.38,0.85,1.81,1.47c0.43,0.63,0.72,1.36,0.88,2.22c0.15,0.86,0.24,1.76,0.24,2.74
		c0,1.03-0.1,2.13-0.31,3.31c-0.21,1.17-0.56,2.26-1.04,3.28c-0.47,1.01-1.1,1.85-1.85,2.5c-1.31,1.11-3.29,1.07-4.75,0.32
		c-0.4-0.21-0.76-0.51-0.96-0.9c-0.17-0.32-0.26,0.07-0.33,0.24c-0.28,0.75-0.43,1.54-0.43,2.35c-0.01,0.54,0.06,1.11,0.32,1.58
		c0.39,0.68,1.14,1.07,1.9,1.29c0.51,0.15,1.04,0.24,1.58,0.28c2.13,0.15,4.43-0.32,6.17-1.63c1.44-1.08,2.61-2.39,3.49-3.95
		c0.88-1.54,1.5-3.17,1.86-4.88s0.54-3.18,0.54-4.42C58,194.03,57.47,192.28,56.4,190.73z M70.27,206.04
		c-0.08-0.22-0.15-0.44-0.21-0.68c-0.68,0.68-1.38,1.01-2.04,1.01c-0.65,0-1.08-0.24-1.29-0.72c-0.21-0.47-0.32-1.01-0.32-1.6
		c0-0.86,0.1-1.63,0.26-2.32l6.04-27.88h-5.38l-5.63,26.9c-0.14,0.63-0.25,1.26-0.33,1.92c-0.08,0.65-0.12,1.29-0.12,1.9
		c0,0.79,0.07,1.54,0.24,2.22c0.15,0.69,0.4,1.29,0.74,1.81c0.85,1.31,2.4,1.79,3.9,1.69c1.6-0.11,2.93-0.82,4.15-1.82
		c0.1-0.08,0.88-0.65,0.76-0.82C70.74,207.17,70.48,206.63,70.27,206.04z M98.32,206.66c-0.17-0.42-0.31-0.86-0.39-1.35
		c-0.69,0.71-1.4,1.06-2.1,1.06c-0.65,0-1.08-0.24-1.29-0.72c-0.21-0.47-0.31-1.01-0.31-1.6c0-0.86,0.08-1.63,0.26-2.32l3.76-17.56
		h-5.21l-0.53,2.49c-0.26-1.07-0.83-1.79-1.69-2.17c-0.86-0.39-1.71-0.57-2.53-0.57c-1.44,0-2.79,0.28-4,0.85
		c-1.22,0.57-2.32,1.33-3.28,2.28c-0.97,0.94-1.83,2.03-2.58,3.28c-0.76,1.24-1.38,2.53-1.86,3.86c-0.49,1.35-0.85,2.69-1.11,4.03
		c-0.26,1.35-0.39,2.6-0.39,3.78c0,1.51,0.19,2.79,0.57,3.83c0.38,1.06,0.88,1.92,1.5,2.58c0.61,0.68,1.32,1.15,2.11,1.44
		c0.79,0.29,1.6,0.44,2.43,0.44c1.65,0,3.17-0.49,4.57-1.47c1.39-0.99,2.49-2.18,3.28-3.58c0.14,1.79,0.57,3.08,1.32,3.86
		c1.07,1.11,2.65,1.37,4.13,1.06c0.75-0.17,1.46-0.47,2.11-0.89c0.19-0.14,1.85-1.4,1.74-1.6
		C98.64,207.35,98.47,207.02,98.32,206.66z M89.54,200.74c-0.18,0.79-0.47,1.54-0.88,2.22c-0.42,0.69-0.89,1.29-1.43,1.78
		c-0.53,0.5-1.08,0.9-1.67,1.19c-0.6,0.29-1.15,0.43-1.71,0.43c-1,0-1.79-0.36-2.38-1.08c-0.58-0.72-0.88-2.06-0.88-4.03
		c0-1.26,0.18-2.75,0.57-4.43c0.38-1.69,0.94-3.26,1.69-4.75c0.76-1.49,1.69-2.74,2.79-3.76c1.1-1.04,2.36-1.56,3.76-1.56
		c0.79,0,1.4,0.24,1.81,0.69c0.42,0.47,0.68,1,0.78,1.58L89.54,200.74z M118.03,192.99c2.4,0,4.35-1.96,4.35-4.35
		c0-1.64-0.92-3.08-2.28-3.82c-0.03-0.01-0.06-0.04-0.1-0.04c-0.89-0.58-2.08-0.86-3.58-0.86c-1.65,0-3.13,0.31-4.43,0.93
		c-1.31,0.61-2.46,1.43-3.46,2.45c-1,1.01-1.85,2.18-2.53,3.49c-0.69,1.31-1.25,2.63-1.68,3.95c-0.43,1.33-0.75,2.63-0.96,3.9
		c-0.21,1.28-0.31,2.39-0.31,3.36c0,1.51,0.21,2.79,0.65,3.83c0.43,1.06,1,1.9,1.71,2.56c0.72,0.65,1.53,1.14,2.46,1.44
		c0.92,0.32,1.88,0.47,2.88,0.47c1.38,0,2.71-0.26,4.01-0.78c1.32-0.51,2.54-1.21,3.7-2.08c0.03-0.03,0.07-0.06,0.1-0.08l0.63-2.92
		c-0.28,0.21-0.56,0.4-0.85,0.57c-1.56,0.92-3.24,1.36-5.06,1.36c-1.69,0-2.88-0.4-3.54-1.21c-0.67-0.81-1-2.11-1-3.9
		c0-1.44,0.18-3.01,0.56-4.72c0.38-1.69,0.92-3.28,1.6-4.74c0.68-1.47,1.51-2.69,2.49-3.67c0.14-0.14,0.26-0.25,0.4-0.36
		c-0.06,0.28-0.08,0.58-0.08,0.88C113.69,191.03,115.64,192.99,118.03,192.99z M118.03,187.07c0.06,0,0.11,0,0.17,0.01
		c0.78,0.08,1.4,0.75,1.4,1.56c0,0.36-0.12,0.69-0.33,0.96c-0.29,0.38-0.74,0.61-1.24,0.61c-0.86,0-1.56-0.71-1.56-1.57
		C116.47,187.78,117.17,187.07,118.03,187.07z M147.31,183.91c-0.49,0.93-1.25,1.63-2.04,2.28c-0.85,0.71-1.78,1.31-2.74,1.88
		c-0.42,0.24-0.82,0.47-1.24,0.71c-0.6,0.35-1.19,0.68-1.81,1c-0.01,0-0.01,0.01-0.03,0.01l-2.54,1.75
		c0.18-0.04,0.92-0.35,1.88-0.35c1-0.01,1.38,0.13,2.04,0.44c0.65,0.33,1.17,0.76,1.54,1.29c0.38,0.53,0.64,1.14,0.81,1.81
		c0.15,0.68,0.22,1.35,0.22,2.04c0,0.72-0.06,1.4-0.18,2.04c-0.11,0.64-0.25,1.24-0.39,1.81c-0.13,0.57-0.26,1.13-0.38,1.68
		c-0.13,0.54-0.18,1.1-0.18,1.65c0,0.92,0.18,1.56,0.56,1.9c0.39,0.35,0.9,0.51,1.56,0.51c0.21,0,0.47-0.01,0.81-0.04
		c0.32-0.04,0.68-0.14,1.06-0.32c-0.07,1.31-0.5,2.35-1.29,3.13c-0.79,0.78-1.88,1.17-3.25,1.17c-0.9,0-1.65-0.15-2.28-0.47
		c-0.61-0.31-1.11-0.72-1.5-1.24c-0.38-0.51-0.65-1.11-0.85-1.81c-0.19-0.69-0.28-1.42-0.28-2.17c0-0.69,0.06-1.33,0.18-1.93
		c0.11-0.61,0.25-1.18,0.39-1.74c0.13-0.56,0.26-1.1,0.38-1.63c0.13-0.53,0.18-1.08,0.18-1.63c0-0.93-0.18-1.6-0.56-2.01
		c-0.39-0.42-0.92-0.63-1.61-0.63c-1.96,0-3.7,1.33-5.21,3.99l-2.32,10.93h-5.17l7.59-36.13h5.32l-4.03,18.68l5.42-4.25
		c0-0.01,0.01-0.03,0.03-0.04c0.25-0.24,0.51-0.44,0.76-0.65c0.79-0.64,1.76-1.26,2.31-2.15c0.31-0.51,0.47-0.93,0.46-1.24
		c0-0.31-0.06-0.58-0.18-0.82c-0.11-0.24-0.28-0.46-0.49-0.65c-0.21-0.19-0.36-0.44-0.43-0.75c-0.08-0.31-0.07-0.68,0-1.13
		c0.08-0.46,0.35-1.04,0.78-1.76c0.28-0.46,0.63-0.81,1.07-1.06c0.43-0.26,0.89-0.42,1.38-0.49c0.49-0.06,0.97-0.04,1.47,0.04
		c0.49,0.08,0.93,0.24,1.31,0.47c1.32,0.79,2.01,1.75,2.11,2.89C148.02,181.97,147.79,183,147.31,183.91z"/>
	<path fill="white" d="M138.17,275.99v-6.96h6.05v1.17h-4.94v1.73h3.98v1.16h-3.98v1.73h4.94v1.17H138.17z M147.68,275.99
		c-0.23,0-0.43-0.06-0.62-0.17s-0.33-0.27-0.44-0.47c-0.11-0.2-0.17-0.42-0.17-0.66v-0.46h1.1v0.42c0,0.05,0.02,0.09,0.05,0.12
		c0.03,0.04,0.07,0.05,0.11,0.05h4.05c0.05,0,0.09-0.02,0.12-0.05c0.03-0.03,0.05-0.08,0.05-0.12v-1.38c0-0.05-0.02-0.09-0.05-0.12
		c-0.03-0.03-0.07-0.05-0.12-0.05h-4.08c-0.23,0-0.43-0.06-0.62-0.17s-0.33-0.27-0.44-0.47c-0.11-0.2-0.17-0.42-0.17-0.65v-1.46
		c0-0.24,0.06-0.46,0.17-0.66c0.11-0.2,0.26-0.36,0.44-0.48s0.39-0.17,0.62-0.17h4.13c0.22,0,0.43,0.06,0.62,0.17
		s0.34,0.28,0.45,0.48c0.11,0.2,0.17,0.42,0.17,0.66v0.46h-1.11v-0.43c0-0.05-0.02-0.09-0.05-0.12c-0.03-0.03-0.07-0.05-0.12-0.05
		h-4.05c-0.04,0-0.08,0.02-0.11,0.05c-0.03,0.03-0.05,0.08-0.05,0.12v1.38c0,0.05,0.02,0.09,0.05,0.12
		c0.03,0.03,0.07,0.05,0.11,0.05h4.09c0.22,0,0.43,0.06,0.62,0.17c0.19,0.12,0.34,0.27,0.45,0.47c0.11,0.2,0.17,0.42,0.17,0.65v1.46
		c0,0.24-0.06,0.46-0.17,0.66c-0.11,0.2-0.26,0.36-0.45,0.47s-0.39,0.17-0.62,0.17H147.68z M157.79,275.99v-5.79h-2.74v-1.17h6.59
		v1.17h-2.75v5.79H157.79z M173.7,275.99v-2.66c0-0.24,0.05-0.45,0.16-0.65c0.11-0.2,0.26-0.35,0.44-0.46
		c0.18-0.11,0.39-0.17,0.62-0.17H179c0.04,0,0.08-0.02,0.11-0.05c0.03-0.04,0.05-0.08,0.05-0.13v-1.5c0-0.05-0.02-0.09-0.05-0.13
		c-0.03-0.04-0.07-0.05-0.11-0.05h-4.03c-0.05,0-0.09,0.02-0.13,0.05c-0.03,0.03-0.05,0.08-0.05,0.13v0.43h-1.09v-0.46
		c0-0.24,0.05-0.46,0.16-0.65c0.11-0.2,0.26-0.35,0.44-0.47c0.18-0.12,0.39-0.17,0.62-0.17h4.1c0.23,0,0.43,0.06,0.61,0.17
		c0.18,0.12,0.33,0.27,0.44,0.47c0.11,0.2,0.17,0.42,0.17,0.65v1.58c0,0.24-0.06,0.46-0.17,0.65c-0.11,0.2-0.26,0.36-0.44,0.48
		c-0.18,0.12-0.39,0.18-0.61,0.18h-4.06c-0.05,0-0.09,0.02-0.13,0.05c-0.03,0.03-0.05,0.08-0.05,0.12v1.28
		c0,0.05,0.02,0.09,0.05,0.13c0.03,0.03,0.08,0.05,0.13,0.05h5.29v1.15H173.7z M184.76,275.99c-0.23,0-0.43-0.06-0.62-0.17
		c-0.19-0.12-0.34-0.27-0.45-0.47c-0.11-0.2-0.16-0.42-0.16-0.66v-4.35c0-0.24,0.06-0.46,0.16-0.66c0.11-0.2,0.26-0.36,0.45-0.48
		c0.19-0.12,0.4-0.17,0.62-0.17h4.12c0.22,0,0.43,0.06,0.62,0.17s0.33,0.28,0.45,0.48c0.11,0.2,0.17,0.42,0.17,0.66v4.35
		c0,0.24-0.06,0.46-0.17,0.66c-0.11,0.2-0.26,0.36-0.45,0.47s-0.39,0.17-0.62,0.17H184.76z M184.78,274.82h4.05
		c0.04,0,0.08-0.02,0.11-0.05c0.03-0.03,0.05-0.08,0.05-0.12v-4.27c0-0.05-0.02-0.09-0.05-0.12c-0.03-0.03-0.07-0.05-0.11-0.05
		h-4.05c-0.04,0-0.08,0.02-0.11,0.05s-0.05,0.08-0.05,0.12v4.27c0,0.05,0.02,0.09,0.05,0.12
		C184.7,274.81,184.74,274.82,184.78,274.82z M186.25,273.09v-1.16h1.1v1.16H186.25z M193.38,275.99v-2.66
		c0-0.24,0.06-0.45,0.17-0.65c0.11-0.2,0.26-0.35,0.44-0.46c0.18-0.11,0.39-0.17,0.62-0.17h4.07c0.04,0,0.08-0.02,0.11-0.05
		c0.03-0.04,0.05-0.08,0.05-0.13v-1.5c0-0.05-0.02-0.09-0.05-0.13c-0.03-0.04-0.07-0.05-0.11-0.05h-4.04
		c-0.05,0-0.09,0.02-0.12,0.05c-0.03,0.03-0.05,0.08-0.05,0.13v0.43h-1.09v-0.46c0-0.24,0.06-0.46,0.17-0.65
		c0.11-0.2,0.26-0.35,0.44-0.47c0.18-0.12,0.39-0.17,0.62-0.17h4.1c0.22,0,0.43,0.06,0.61,0.17c0.18,0.12,0.33,0.27,0.44,0.47
		c0.11,0.2,0.17,0.42,0.17,0.65v1.58c0,0.24-0.06,0.46-0.17,0.65c-0.11,0.2-0.26,0.36-0.44,0.48c-0.18,0.12-0.39,0.18-0.61,0.18
		h-4.06c-0.05,0-0.09,0.02-0.12,0.05c-0.03,0.03-0.05,0.08-0.05,0.12v1.28c0,0.05,0.02,0.09,0.05,0.13
		c0.03,0.03,0.08,0.05,0.12,0.05h5.29v1.15H193.38z M203.2,275.99v-2.66c0-0.24,0.05-0.45,0.16-0.65c0.11-0.2,0.26-0.35,0.44-0.46
		c0.19-0.11,0.39-0.17,0.62-0.17h4.07c0.04,0,0.08-0.02,0.11-0.05c0.03-0.04,0.05-0.08,0.05-0.13v-1.5c0-0.05-0.02-0.09-0.05-0.13
		c-0.03-0.04-0.07-0.05-0.11-0.05h-4.03c-0.05,0-0.09,0.02-0.12,0.05c-0.03,0.03-0.05,0.08-0.05,0.13v0.43h-1.09v-0.46
		c0-0.24,0.05-0.46,0.16-0.65c0.11-0.2,0.26-0.35,0.44-0.47s0.39-0.17,0.62-0.17h4.1c0.23,0,0.43,0.06,0.61,0.17
		c0.18,0.12,0.33,0.27,0.44,0.47c0.11,0.2,0.17,0.42,0.17,0.65v1.58c0,0.24-0.06,0.46-0.17,0.65c-0.11,0.2-0.26,0.36-0.44,0.48
		c-0.18,0.12-0.39,0.18-0.61,0.18h-4.06c-0.05,0-0.09,0.02-0.12,0.05c-0.03,0.03-0.05,0.08-0.05,0.12v1.28
		c0,0.05,0.02,0.09,0.05,0.13c0.03,0.03,0.07,0.05,0.12,0.05h5.29v1.15H203.2z"/>
	<path fill="black" d="M104.69,233.83c-0.03-0.03-0.04-0.06-0.06-0.08c-0.08-0.13-0.18-0.25-0.28-0.38c-0.42-0.5-0.93-0.94-1.5-1.29
		c-0.01-0.01-0.04-0.03-0.07-0.03c-0.88-0.53-1.89-0.82-2.97-0.82h-0.06c-0.56-0.15-1.18-0.24-1.88-0.24c-1.79,0-3.35,0.31-4.7,0.93
		c-1.35,0.61-2.53,1.44-3.54,2.47c-1.01,1.03-1.85,2.2-2.53,3.49c-0.67,1.29-1.21,2.61-1.63,3.97c-0.42,1.36-0.71,2.68-0.88,3.95
		c-0.17,1.28-0.26,2.42-0.26,3.42c0,1.47,0.21,2.74,0.63,3.76c0.42,1.03,0.99,1.87,1.71,2.53c0.72,0.65,1.57,1.13,2.56,1.42
		c0.97,0.29,2.03,0.44,3.17,0.44c1.58,0,3.03-0.39,4.33-1.19c1.32-0.78,2.45-1.89,3.42-3.29c0.96-1.42,1.74-3.07,2.32-4.99
		c0.58-1.9,0.96-3.99,1.14-6.22c0.01,0,0.01-0.03,0.03-0.1c1.26-1.08,2.06-2.68,2.06-4.46C105.7,235.9,105.33,234.77,104.69,233.83z
		 M100.17,246.71c-0.43,1.43-0.94,2.65-1.54,3.64c-0.6,1-1.28,1.78-2.01,2.31s-1.49,0.81-2.25,0.81c-1.61,0-2.74-0.42-3.38-1.25
		c-0.64-0.82-0.96-2.13-0.96-3.92c0-0.86,0.08-1.82,0.24-2.86c0.15-1.06,0.39-2.11,0.69-3.18c0.31-1.07,0.69-2.11,1.17-3.13
		c0.46-1.01,1-1.9,1.6-2.68c0.1-0.12,0.21-0.26,0.32-0.38c-0.08,0.35-0.11,0.69-0.11,1.06c0,3.24,2.64,5.88,5.88,5.88
		c0.4,0,0.78-0.04,1.15-0.12C100.78,244.29,100.52,245.57,100.17,246.71z M100.6,238.18c-0.39,0-0.75-0.11-1.04-0.31
		c-0.54-0.35-0.9-0.96-0.9-1.64c0-0.88,0.57-1.6,1.35-1.83c0.19-0.08,0.39-0.11,0.6-0.11c0.35,0,0.67,0.08,0.94,0.25
		c0.31,0.15,0.57,0.4,0.74,0.71c0.18,0.29,0.28,0.62,0.28,0.99C102.56,237.3,101.69,238.18,100.6,238.18z M81.28,253.85
		c-0.21-0.5-0.36-1.06-0.46-1.65c-0.78,0.85-1.54,1.26-2.29,1.26c-0.65,0-1.08-0.25-1.29-0.74c-0.21-0.47-0.31-1.01-0.31-1.6
		c0-0.86,0.08-1.63,0.25-2.32l3.76-17.56h-5.21l-3.51,16.57c-0.38,1.79-1.08,3.18-2.14,4.17c-1.04,0.97-2.07,1.47-3.07,1.47
		c-0.65,0-1.21-0.25-1.65-0.74c-0.44-0.47-0.67-1.21-0.67-2.21c0-0.58,0.07-1.15,0.21-1.71l3.76-17.56h-5.21l-3.51,16.57
		c-0.21,0.93-0.31,1.82-0.31,2.64c0,1.07,0.14,2.03,0.43,2.89c0.29,0.86,0.69,1.58,1.21,2.17c0.53,0.58,1.13,1.04,1.82,1.37
		c0.68,0.32,1.42,0.49,2.21,0.49c1.18,0,2.38-0.39,3.6-1.17c1.22-0.76,2.32-2.03,3.32-3.79c0.14,1.76,0.58,3.03,1.35,3.79
		c1.43,1.42,3.54,1.4,5.31,0.62c1.11-0.49,1.99-1.31,2.76-2.21C81.52,254.38,81.39,254.13,81.28,253.85z M126.69,252.72
		c-0.21-0.47-0.32-1.01-0.32-1.6c0-0.86,0.08-1.63,0.26-2.32l5.75-26.78h-5.35l-2.36,11.75c-0.28-1.1-0.83-1.83-1.68-2.21
		c-0.85-0.39-1.69-0.57-2.56-0.57c-1.44,0-2.78,0.28-4,0.85c-1.22,0.57-2.32,1.33-3.28,2.28c-0.97,0.94-1.82,2.03-2.58,3.28
		c-0.76,1.24-1.38,2.53-1.86,3.86c-0.47,1.35-0.85,2.7-1.11,4.03c-0.25,1.35-0.39,2.6-0.39,3.78c0,1.51,0.19,2.79,0.57,3.83
		c0.39,1.06,0.89,1.92,1.5,2.58c0.63,0.68,1.32,1.15,2.13,1.44c0.78,0.29,1.6,0.44,2.42,0.44c1.65,0,3.18-0.49,4.57-1.47
		c1.39-0.99,2.49-2.18,3.28-3.58c0.14,1.79,0.58,3.08,1.32,3.86c0.74,0.81,1.68,1.19,2.81,1.19c0.56,0,1.18-0.1,1.89-0.28
		c0.11-0.03,0.22-0.07,0.32-0.11l0.79-3.7c-0.28,0.11-0.54,0.17-0.82,0.17C127.32,253.46,126.89,253.21,126.69,252.72z
		 M121.68,247.82c-0.17,0.79-0.46,1.54-0.88,2.22c-0.42,0.69-0.89,1.29-1.42,1.78c-0.54,0.5-1.1,0.9-1.68,1.19
		c-0.58,0.29-1.15,0.44-1.71,0.44c-1,0-1.79-0.36-2.38-1.1c-0.58-0.72-0.88-2.06-0.88-4.02c0-1.28,0.19-2.76,0.57-4.45
		c0.37-1.68,0.94-3.26,1.71-4.75c0.75-1.49,1.68-2.74,2.78-3.76c1.11-1.04,2.36-1.56,3.78-1.56c0.79,0,1.4,0.25,1.83,0.72
		c0.43,0.49,0.67,1,0.75,1.56L121.68,247.82z M171.65,252.72c-0.21-0.47-0.32-1.01-0.32-1.6c0-0.86,0.1-1.63,0.26-2.32l3.76-17.56
		h-5.21l-3.51,16.57c-0.38,1.79-1.1,3.18-2.14,4.17c-1.06,0.97-2.07,1.47-3.07,1.47c-0.65,0-1.21-0.25-1.65-0.74
		c-0.44-0.47-0.67-1.21-0.67-2.21c0-0.58,0.06-1.15,0.19-1.71l3.78-17.56h-5.22l-3.5,16.57c-0.21,0.93-0.32,1.82-0.32,2.64
		c0,1.07,0.15,2.03,0.44,2.89c0.29,0.86,0.69,1.58,1.21,2.17c0.51,0.58,1.13,1.04,1.81,1.37c0.69,0.32,1.43,0.49,2.22,0.49
		c1.17,0,2.36-0.39,3.58-1.17c1.22-0.76,2.33-2.03,3.33-3.79c0.14,1.76,0.58,3.03,1.35,3.79c0.58,0.58,1.32,1.01,2.17,1.11
		c1.03,0.11,2.07-0.03,3.04-0.4l0.79-3.74c-0.35,0.18-0.69,0.28-1.04,0.28C172.27,253.46,171.86,253.21,171.65,252.72z
		 M211.85,253.45c-1.24,0-1.86-0.9-1.86-2.74c0-0.93,0.14-1.96,0.39-3.13c0.26-1.14,0.54-2.32,0.85-3.53
		c0.32-1.21,0.6-2.43,0.86-3.7c0.25-1.25,0.39-2.45,0.39-3.58c0-0.76-0.08-1.49-0.24-2.19c-0.15-0.71-0.44-1.33-0.85-1.86
		c-0.42-0.53-0.97-0.96-1.65-1.26c-0.69-0.31-1.56-0.46-2.58-0.46c-0.49,0-0.99,0.04-1.53,0.13c-0.53,0.08-1.1,0.28-1.69,0.6
		c-0.61,0.31-1.22,0.74-1.83,1.31c-0.63,0.57-1.26,1.33-1.92,2.31c-0.17-1.21-0.64-2.24-1.42-3.07c-0.78-0.85-2.04-1.26-3.79-1.26
		c-0.86,0-1.85,0.19-2.95,0.61c-1.1,0.42-2.25,1.4-3.46,2.95l0.72-3.31h-5.21l-5.47,25.81h5.15l3.57-16.61
		c0.82-1.86,1.63-3.25,2.39-4.15c0.78-0.92,1.72-1.38,2.82-1.38c0.65,0,1.17,0.19,1.56,0.57c0.38,0.38,0.56,1.06,0.56,2.01
		c0,0.31-0.01,0.65-0.04,1.03c-0.04,0.39-0.11,0.81-0.21,1.29l-3.67,17.24h5.21l3.57-16.61c0.82-1.9,1.63-3.29,2.4-4.18
		c0.76-0.9,1.71-1.35,2.81-1.35c0.9,0,1.5,0.26,1.81,0.78c0.32,0.51,0.47,1.19,0.47,2.06c0,0.93-0.14,1.97-0.39,3.1
		c-0.26,1.14-0.54,2.32-0.86,3.54c-0.31,1.22-0.58,2.46-0.85,3.7c-0.25,1.24-0.39,2.4-0.39,3.51c0,1.89,0.42,3.32,1.24,4.31
		c0.83,0.97,1.9,1.47,3.21,1.47c0.35,0,0.75-0.06,1.24-0.15c0.49-0.11,0.96-0.31,1.42-0.6c0.47-0.29,0.88-0.72,1.22-1.29
		c0.33-0.57,0.54-1.32,0.61-2.25C212.87,253.33,212.34,253.45,211.85,253.45z M149.67,231.04h-0.04c-0.22-0.03-0.44-0.04-0.69-0.04
		c-0.72,0-1.39,0.13-2.01,0.38c-0.63,0.26-1.21,0.61-1.78,1.04s-1.11,0.9-1.63,1.44c-0.51,0.53-1.01,1.07-1.5,1.63l0.93-4.24h-5.22
		l-5.47,25.81h5.17l4.08-19.05c0.72-0.63,1.5-1.19,2.35-1.72c0.5-0.32,0.99-0.54,1.44-0.67c0.12,2.29,2.01,4.1,4.33,4.1
		c2.39,0,4.33-1.94,4.33-4.35C153.96,233,152.05,231.06,149.67,231.04z M151.17,235.57c-0.1,0.76-0.75,1.38-1.54,1.38
		c-0.25,0-0.5-0.06-0.71-0.18c-0.51-0.25-0.86-0.78-0.86-1.39c0-0.86,0.71-1.56,1.57-1.56c0.86,0,1.56,0.69,1.56,1.56
		C151.18,235.44,151.18,235.5,151.17,235.57z M56.19,227.68c-0.43-1.58-1.13-2.97-2.11-4.16c-0.98-1.19-2.28-2.12-3.89-2.79
		c-1.62-0.67-3.59-1.01-5.93-1.01c-2.54,0-5.03,0.39-7.47,1.19c-2.44,0.79-4.61,1.84-6.52,3.15c-1.91,1.31-3.44,2.82-4.59,4.52
		c-1.15,1.7-1.73,3.47-1.73,5.29c0,1.55,0.42,2.65,1.26,3.3c0.84,0.65,1.98,0.98,3.43,0.98c-0.2-0.24-0.34-0.57-0.41-0.98
		c-0.07-0.41-0.1-0.89-0.1-1.45c0-2.3,0.43-4.34,1.29-6.09c0.86-1.76,2-3.23,3.41-4.41c1.41-1.19,3.05-2.09,4.9-2.71
		c1.86-0.62,3.77-0.93,5.73-0.93c1.45,0,2.67,0.17,3.67,0.52c1,0.34,1.79,0.89,2.38,1.63c0.58,0.74,1.01,1.69,1.27,2.84
		c0.26,1.15,0.39,2.54,0.39,4.16c0,2.13-0.19,4.26-0.57,6.38c-0.38,2.12-0.9,4.14-1.55,6.07c-0.63,1.84-1.38,3.53-2.24,5.07
		c-1.84-1.36-4.17-1.58-6.39-1.12c-1.67,0.35-3.25,1.08-4.56,2.18c-0.3,0.25-0.6,0.52-0.89,0.81c-0.07-0.6-0.1-1.21-0.07-1.82
		c0.06-1.08,0.1-2.15,0.25-3.23c0.04-0.29,0.08-0.57,0.13-0.85c0.26-1.55,0.63-3.13,1.11-4.75c0.48-1.62,1.05-3.21,1.7-4.78
		c0.65-1.57,1.36-3.02,2.14-4.36c0.77-1.34,1.6-2.51,2.47-3.51c0.88-1,1.76-1.74,2.65-2.22c-0.48-0.17-0.94-0.28-1.39-0.34
		c-0.45-0.05-0.86-0.08-1.24-0.08c-1.58,0-3.02,0.4-4.3,1.21s-2.46,1.88-3.5,3.2c-1.05,1.33-1.96,2.84-2.73,4.54
		c-0.77,1.7-1.42,3.46-1.93,5.27c-0.52,1.81-0.9,3.58-1.16,5.32c-0.26,1.74-0.39,3.3-0.39,4.67c0,1.89,0.22,3.49,0.67,4.8
		c0.45,1.31,1.08,2.38,1.91,3.2c0.82,0.83,1.8,1.43,2.91,1.81c1.12,0.38,2.35,0.57,3.69,0.57c1.03,0,2.01-0.09,2.94-0.28
		c0.79-0.16,1.53-0.43,2.25-0.74c-0.3,0.65-0.67,1.23-0.91,1.91c-0.32,0.89-0.67,1.77-0.95,2.68c-0.55,1.78-0.77,3.64-0.11,5.43
		c0.65,1.79,2.14,3.31,3.99,3.75c0.68,0.16,1.38,0.18,2.08,0.15c2.12-0.08,3.63-0.87,4.91-2.55c0.59-0.78,1.06-1.65,1.4-2.57
		c0.17-0.48,0.31-0.97,0.4-1.47c0.03-0.17,0.05-1.21,0.15-1.28c-1.25,0.83-2.76,1.28-4.27,1.25c-0.24,0-0.48-0.02-0.7-0.08
		c-0.14-0.03-0.28-0.09-0.41-0.16c-0.76-0.43-0.92-1.44-0.91-2.31c0.02-1.11,0.21-2.22,0.55-3.27c0.53-1.62,1.13-3.3,1.25-5.02
		c0.03-0.37,0.01-0.74-0.03-1.1c0.1-0.11,0.21-0.22,0.31-0.34c0.45-0.53,0.87-1.08,1.26-1.64c1.29-1.86,2.36-3.84,3.2-5.94
		c0.84-2.1,1.47-4.23,1.9-6.4c0.43-2.17,0.64-4.18,0.64-6.04C56.84,230.95,56.62,229.26,56.19,227.68z M38.97,254.84
		c-1.27,0-2.4-0.6-3.08-1.69c-0.26-0.41-0.43-0.87-0.57-1.33c0.63-0.54,1.29-1.06,2.06-1.37c0.95-0.38,2-0.41,3.01-0.28
		c0.76,0.1,1.53,0.31,2.1,0.81c0.45,0.4,0.74,0.96,0.91,1.53c0.02,0.07,0.02,0.15,0.04,0.23c-0.23,0.21-0.44,0.43-0.69,0.61
		C41.67,254.2,40.37,254.84,38.97,254.84z"/>
	<path id="tree" stroke="#000000" stroke-width="1" d="M126.2,274.51H62.28c-1.1,0-2-0.9-2-2s0.9-2,2-2h63.92c1.1,0,2,0.9,2,2S127.3,274.51,126.2,274.51z M234.23,206.48
		c0-1.1-0.9-2-2-2h-47.84c-1.1,0-2,0.9-2,2s0.9,2,2,2h45.84v62.03h-9.75c-1.1,0-2,0.9-2,2s0.9,2,2,2h11.75c1.1,0,2-0.9,2-2v-65.77
		c0-0.04-0.01-0.09-0.01-0.13C234.22,206.57,234.23,206.52,234.23,206.48z M251.58,77.24c0.29,0.29,0.68,0.44,1.06,0.44
		s0.77-0.15,1.06-0.44l2.18-2.18l2.18,2.18c0.29,0.29,0.68,0.44,1.06,0.44s0.77-0.15,1.06-0.44c0.59-0.59,0.59-1.54,0-2.12
		l-2.18-2.18l2.18-2.18c0.59-0.59,0.59-1.54,0-2.12c-0.59-0.59-1.54-0.59-2.12,0l-2.18,2.18l-2.18-2.18c-0.59-0.59-1.54-0.59-2.12,0
		s-0.59,1.54,0,2.12l2.18,2.18l-2.18,2.18C251,75.7,251,76.65,251.58,77.24z M240.18,70.14l-18.4,15.49h-14.95l16.28-13.7
		c0.84-0.71,0.95-1.97,0.24-2.82c-0.71-0.85-1.97-0.95-2.82-0.24l-8.31,6.99v-7.12c0-1.1-0.9-2-2-2s-2,0.9-2,2v10.49l-12.7,10.69
		c0,0,0,0,0,0l-22.05,18.55v-11c0-1.1-0.9-2-2-2s-2,0.9-2,2v15.59c0,1.1,0.9,2,2,2c0.83,0,1.54-0.51,1.85-1.23l28.76-24.2h54.16
		c1.1,0,2-0.9,2-2s-0.9-2-2-2h-28.25l14.76-12.43c0.84-0.71,0.95-1.97,0.24-2.82C242.28,69.53,241.02,69.43,240.18,70.14z
		 M274.05,131.93h-23.17l10.34-8.7c0.84-0.71,0.95-1.97,0.24-2.82c-0.71-0.85-1.98-0.95-2.82-0.24l-13.85,11.66
		c-0.04,0.03-0.07,0.07-0.1,0.1h-12.87l25.49-21.45c0.84-0.71,0.95-1.97,0.24-2.82c-0.71-0.85-1.98-0.95-2.82-0.24l-16.43,13.83
		v-8.92c0-1.1-0.9-2-2-2s-2,0.9-2,2v10.62c0,0.49,0.18,0.93,0.47,1.28l-7.8,6.56c-0.36,0.31-0.58,0.72-0.67,1.15h-26.96
		c-0.05,0-0.09,0.01-0.14,0.01c-0.08,0.01-0.16,0.01-0.23,0.02c-0.07,0.01-0.13,0.03-0.19,0.05c-0.06,0.02-0.12,0.03-0.18,0.06
		c-0.07,0.03-0.13,0.06-0.19,0.1c-0.05,0.03-0.11,0.05-0.16,0.08c-0.07,0.04-0.13,0.1-0.19,0.15c-0.03,0.03-0.07,0.05-0.1,0.08
		l-14.85,14.38l12.66-29.45h28.92c1.1,0,2-0.9,2-2s-0.9-2-2-2h-4.68l6.34-5.34c0.84-0.71,0.95-1.97,0.24-2.82
		c-0.71-0.85-1.97-0.95-2.82-0.24l-9.48,7.98c-0.15,0.12-0.26,0.27-0.36,0.42h-6.07l6.34-5.34c0.84-0.71,0.95-1.97,0.24-2.82
		c-0.71-0.85-1.97-0.95-2.82-0.24l-9.48,7.98c-0.15,0.12-0.26,0.27-0.36,0.42h-7.32c-0.62,0-1.17,0.29-1.54,0.74
		c-0.13,0.15-0.25,0.32-0.33,0.51l-16.64,38.71c-0.09,0.21-0.13,0.42-0.15,0.64c-0.44,1.12-1.01,2.54-1.54,3.87
		c-1.32,3.29-2.14,5.34-2.38,6.14c-0.17,0.58-0.34,1.15-0.5,1.71c-0.19-0.72-0.39-1.44-0.56-2.19c-0.94-3.95-2.06-7.58-3.43-11.09
		l-0.54-1.38c-1.13-2.88-2.31-5.86-2.95-8.79c-0.36-1.62-0.51-3.3-0.67-5.07c-0.24-2.56-0.48-5.21-1.38-7.78
		c-1.91-5.49-6.37-9.36-10.58-12.07c0.05-0.29,0.05-0.59-0.03-0.89c-0.61-2.19,0-4.94,1.8-8.17c0.47-0.84,0.98-1.67,1.49-2.5
		c1.3-2.11,2.63-4.29,3.43-6.8c1.54-4.86,0.73-9.92,0.03-14.38c-0.17-1.09-1.2-1.82-2.29-1.66c-1.09,0.17-1.83,1.2-1.66,2.29
		c0.64,4.02,1.37,8.58,0.11,12.54c-0.64,2.04-1.8,3.92-3.02,5.91c-0.54,0.88-1.08,1.75-1.57,2.64c-1.74,3.13-2.58,5.94-2.53,8.52
		c-1.6-0.87-3.09-1.71-3.94-2.98c-0.71-1.06-1.03-2.52-1.34-3.93c-0.29-1.31-0.52-2.71-0.77-4.21c-0.46-2.79-0.98-5.82-1.93-8.61
		c0.55-1.12,0.67-2.32,0.77-3.32c0.02-0.22,0.04-0.44,0.07-0.66c0.23-1.95,0.97-3.87,1.76-5.9c0.9-2.32,1.83-4.71,2.05-7.35
		c0.31-3.66,2.13-7.86,5.4-12.49c4.31-6.08,4.8-13.8,2.93-20.6c-0.01-0.09-0.01-0.19-0.03-0.28c-0.59-2.68,0.33-4.63,1.5-7.11
		c0.39-0.84,0.8-1.7,1.17-2.65c0.41-1.03-0.1-2.19-1.13-2.59c-1.03-0.41-2.19,0.1-2.59,1.13c-0.33,0.83-0.71,1.63-1.07,2.41
		c-0.3,0.64-0.6,1.29-0.88,1.95c-0.71-1.18-1.49-2.29-2.34-3.29c-2.54-2.99-5.64-5.24-8.64-7.43c-0.89-0.65-2.14-0.45-2.79,0.44
		c-0.65,0.89-0.45,2.14,0.44,2.79c2.81,2.04,5.71,4.16,7.95,6.79c5.56,6.54,7.92,18.09,2.23,26.12c-2.37,3.36-4.06,6.56-5.07,9.59
		c-0.17-1.04-0.31-2.12-0.44-3.22c-0.26-2.16-0.53-4.4-1.17-6.58c-1.59-5.36-5.01-9.06-9.95-10.76c0.15-1.35,1.05-2.79,2.05-4.4
		c1.41-2.26,3-4.83,2.69-7.86c-0.07-0.73-0.23-1.59-0.4-2.5c-0.18-0.97-0.36-1.97-0.41-2.65c-0.07-1.1-1.01-1.96-2.13-1.86
		c-1.1,0.07-1.94,1.03-1.86,2.13c0.06,0.9,0.26,2.02,0.46,3.1c0.14,0.79,0.29,1.61,0.35,2.19c0.17,1.67-0.94,3.45-2.11,5.34
		c-0.26,0.42-0.53,0.86-0.79,1.3c-0.52-1.11-1.24-2.07-1.96-2.96c-0.62-0.76-1.37-1.63-2.28-2.37c-1.07-0.88-1.98-1.89-2.94-2.97
		l-0.72-0.81c-0.74-0.82-2.01-0.88-2.83-0.14c-0.82,0.74-0.88,2.01-0.14,2.83l0.7,0.78c1.02,1.15,2.08,2.34,3.4,3.42
		c0.63,0.51,1.19,1.16,1.7,1.79c0.7,0.86,1.39,1.79,1.67,2.74c0.26,0.86,0.23,1.9,0.17,2.94c-0.54,0.1-1.09,0.15-1.42-0.01
		c-0.17-0.08-0.4-0.27-0.64-0.47c-0.3-0.24-0.63-0.52-1.05-0.76c-1.2-0.71-2.66-0.94-4.02-0.62c-1.08,0.25-1.74,1.33-1.49,2.4
		c0.25,1.08,1.33,1.75,2.4,1.49c0.35-0.08,0.75-0.02,1.06,0.16c0.16,0.1,0.36,0.26,0.57,0.43c0.38,0.31,0.85,0.7,1.46,0.99
		c0.77,0.36,1.55,0.49,2.29,0.49c0.94,0,1.81-0.2,2.49-0.35c0.23-0.05,0.63-0.16,1.04-0.39l0.28,0.07c4.32,1.1,7.18,3.94,8.51,8.44
		c0.55,1.85,0.79,3.83,1.04,5.92c0.42,3.49,0.86,7.1,2.83,10.3c-0.34,1.17-0.79,2.35-1.26,3.56c-0.71,1.83-1.42,3.72-1.8,5.73
		c-5.22-7.24-12.26-12.13-19.11-16.47c-2.11-3.37-3.89-7.06-5.61-10.64c-1.04-2.17-2.07-4.67-1.8-6.75
		c0.11-0.88,0.44-1.79,0.78-2.76c0.53-1.49,1.13-3.19,1.04-5.11c-0.11-2.29-0.98-4.55-2.53-6.53c-0.35-0.45-0.72-0.91-0.85-1.31
		c-0.08-0.24-0.11-0.57-0.14-0.89c-0.13-1.56-0.14-3.13-0.03-4.69c0.08-1.1-0.74-2.06-1.85-2.14c-1.12-0.09-2.06,0.74-2.14,1.85
		c-0.13,1.77-0.12,3.56,0.03,5.33c0.04,0.52,0.11,1.14,0.32,1.78c0.35,1.07,0.99,1.89,1.51,2.54c0.72,0.92,1.6,2.4,1.68,4.24
		c0.05,1.14-0.37,2.33-0.82,3.59c-0.4,1.12-0.81,2.28-0.98,3.58c-0.41,3.11,0.86,6.29,2.16,9c1,2.1,2.04,4.23,3.14,6.33
		c-2.17-0.51-4.36-0.7-6.51-0.87c-3.47-0.28-6.75-0.55-9.65-2.18c-1.81-1.02-3.3-2.73-4.09-4.69c-0.19-0.48-0.35-0.97-0.51-1.47
		c-0.47-1.46-1.01-3.12-2.27-4.45c-2.14-2.26-5.31-2.49-7.4-2.64c-0.9-0.07-1.81-0.11-2.71-0.16c-3.39-0.17-6.6-0.33-9.53-1.57
		c-1.01-0.43-2.19,0.05-2.62,1.06c-0.43,1.02,0.05,2.19,1.06,2.62c3.58,1.51,7.29,1.7,10.89,1.88c0.87,0.04,1.75,0.09,2.63,0.15
		c1.96,0.14,3.79,0.35,4.79,1.4c0.64,0.67,0.99,1.77,1.37,2.93c0.19,0.58,0.38,1.17,0.61,1.73c1.14,2.84,3.22,5.21,5.84,6.69
		c3.66,2.06,7.54,2.37,11.29,2.68c3.63,0.29,7.06,0.58,10.09,2.42c0.27,0.3,0.6,0.51,0.97,0.6c6.78,4.31,13.7,9.18,18.49,16.36
		c1.98,2.98,2.7,7.26,3.39,11.41c0.26,1.54,0.5,3,0.81,4.4c0.37,1.69,0.79,3.61,1.92,5.3c1.45,2.15,3.66,3.35,5.62,4.41l0.24,0.13
		c4.75,2.57,10.46,6.27,12.48,12.09c0.73,2.11,0.95,4.41,1.17,6.84c0.17,1.82,0.34,3.7,0.75,5.56c0.71,3.25,1.94,6.37,3.13,9.4
		l0.54,1.36c0.34,0.88,0.67,1.77,0.98,2.67c-0.82-1.3-1.66-2.6-2.51-3.91c-0.79-1.21-1.59-2.44-2.38-3.68
		c-6.08-9.55-15.55-10.03-23.12-9.38c-1.72,0.15-3.46,0.36-5.14,0.56c-0.2,0.02-0.39,0.05-0.58,0.07c-0.33-2.02-0.37-4.1-0.4-6.29
		c-0.03-1.78-0.05-3.62-0.25-5.45c-0.02-0.14-0.04-0.29-0.06-0.43c0.01-0.22-0.02-0.45-0.09-0.67c-0.57-3.93-1.92-7.77-3.94-11.16
		c-1.3-2.17-3.47-5.79-4.06-8.79c-0.29-1.48,1.32-3.58,2.9-4.41c0.19-0.1,0.39-0.19,0.59-0.29c1.02-0.47,2.41-1.12,3.14-2.62
		c0.49-0.99,0.08-2.19-0.91-2.68c-0.99-0.49-2.19-0.08-2.68,0.91c-0.11,0.23-0.77,0.53-1.24,0.75c-0.25,0.12-0.5,0.24-0.75,0.36
		c-1.6,0.83-3.11,2.27-4.06,3.97c-0.03-0.06-0.07-0.11-0.1-0.17c-0.69-1.1-1.56-2.1-2.32-2.94c-1.74-1.93-3.74-3.56-5.94-4.84
		c-0.95-0.56-2.18-0.23-2.73,0.72c-0.56,0.95-0.23,2.18,0.72,2.73c1.85,1.07,3.52,2.44,4.99,4.06c0.65,0.72,1.38,1.55,1.9,2.38
		c0.13,0.21,0.25,0.41,0.37,0.62c0.5,0.84,1.06,1.79,2.02,2.64c0.11,0.1,0.22,0.18,0.35,0.24c0.64,2.58,1.95,5.17,3.39,7.68
		c-0.74-0.67-1.5-1.31-2.33-1.89c-1.5-1.05-3.09-1.88-4.46-2.57c-1.39-0.7-2.77-1.36-4.15-2.02c-2.51-1.2-4.88-2.33-7.27-3.7
		c-0.96-0.55-2.18-0.22-2.73,0.74s-0.22,2.18,0.74,2.73c2.52,1.45,5.07,2.67,7.54,3.85c1.35,0.64,2.7,1.29,4.06,1.98
		c1.55,0.78,2.81,1.47,3.97,2.28c3.78,2.65,6.51,6.68,9.12,10.64c0.01,0.09,0.03,0.19,0.04,0.28c0.18,1.65,0.2,3.32,0.22,5.08
		c0.03,2.18,0.08,4.42,0.42,6.67c-4.04,0.38-7.92,0.44-11.67-0.6c-3.19-0.89-6.13-2.54-9.24-4.29c-0.81-0.46-1.62-0.91-2.45-1.36
		c-0.01-0.46-0.17-0.92-0.49-1.29c-3.96-4.47-8.45-9.54-10.17-15.56c-0.18-0.64-0.34-1.3-0.5-1.95c-0.43-1.82-0.88-3.7-1.89-5.45
		c-1.4-2.42-3.61-4.09-5.75-5.59c-2.55-1.79-3.27-3.75-4.47-6.99l-0.26-0.69c-0.46-1.23-0.93-2.49-1.55-3.72
		c0.1-0.35,0.12-0.73,0.02-1.11c-0.39-1.42-0.15-3.06,0.67-4.5c0.78-1.37,1.98-2.36,3.29-2.72c1.07-0.29,1.69-1.39,1.4-2.46
		s-1.39-1.69-2.46-1.4c-2.33,0.64-4.42,2.31-5.72,4.6c-0.45,0.8-0.79,1.64-1.02,2.5c-0.66-0.67-1.34-1.33-2.01-1.96
		c-0.59-0.56-1.19-1.12-1.77-1.7c-2.63-2.64-3.96-5.02-4.05-7.29c-0.04-1.13,0.22-2.41,0.8-3.81c0.42-1.02-0.07-2.19-1.09-2.61
		c-1.02-0.42-2.19,0.07-2.61,1.09c-0.79,1.93-1.16,3.77-1.09,5.48c0.13,3.32,1.83,6.58,5.21,9.96c0.6,0.61,1.23,1.19,1.86,1.78
		c1.77,1.66,3.44,3.23,4.57,5.14c0.73,1.23,1.25,2.63,1.8,4.1l0.25,0.68c1.26,3.42,2.36,6.37,5.93,8.88c1.85,1.3,3.59,2.6,4.58,4.32
		c0.72,1.25,1.08,2.77,1.46,4.37c0.02,0.07,0.04,0.13,0.05,0.2l-7.22-4.67c-0.82-0.53-1.59-1.03-2.16-1.64
		c-0.29-0.32-0.57-0.71-0.87-1.12c-0.19-0.26-0.37-0.52-0.57-0.78c-3.13-4.04-8.89-5.8-13.23-6.1c-0.8-0.05-1.61-0.15-2.41-0.28
		c0.84-1.7,1.02-3.71,0.48-5.53c-0.2-0.69-0.5-1.32-0.75-1.87c-0.3-0.64-0.56-1.19-0.62-1.69c-0.14-1.1-1.14-1.88-2.24-1.73
		c-1.1,0.14-1.87,1.14-1.73,2.24c0.14,1.12,0.58,2.05,0.96,2.88c0.22,0.47,0.42,0.91,0.54,1.31c0.26,0.87,0.16,1.87-0.25,2.67
		c-0.13,0.26-0.2,0.53-0.21,0.8c-1.12-0.37-2.22-0.81-3.27-1.32c-0.35-0.17-0.73-0.37-0.93-0.57c-0.4-0.42-0.53-1.33-0.67-2.3
		c-0.17-1.23-0.37-2.62-1.19-3.88c-0.94-1.43-2.31-2.13-3.52-2.75c-0.77-0.4-1.5-0.77-1.92-1.25c-0.72-0.84-1.99-0.93-2.82-0.21
		c-0.84,0.72-0.93,1.99-0.21,2.82c0.92,1.07,2.09,1.67,3.12,2.19c0.88,0.45,1.64,0.84,2,1.38c0.33,0.51,0.45,1.35,0.58,2.24
		c0.2,1.41,0.45,3.17,1.75,4.52c0.65,0.67,1.4,1.07,2.05,1.39c3.41,1.67,7.21,2.68,10.98,2.94c3.32,0.23,8.01,1.55,10.34,4.55
		c0.17,0.22,0.33,0.44,0.49,0.66c0.36,0.5,0.73,1.01,1.19,1.52c0.91,0.98,1.97,1.67,2.91,2.27l11,7.12
		c0.14,0.09,0.29,0.15,0.45,0.21c1.47,3.09,3.44,5.88,5.53,8.45c-0.41-0.12-0.83-0.23-1.25-0.33c-3-0.69-6.02-0.72-8.94-0.75
		c-1.27-0.01-2.59-0.03-3.86-0.1c-6.77-0.38-13.5-2.5-19.36-6.04c0.05-0.33,0.03-0.67-0.1-1c-1.14-3.01-3.25-5.77-6.27-8.21
		c-2.57-2.07-5.42-3.63-8.17-5.13c-0.97-0.53-2.18-0.17-2.71,0.8c-0.53,0.97-0.17,2.18,0.8,2.71c2.6,1.42,5.29,2.88,7.58,4.73
		c1.26,1.02,2.32,2.09,3.17,3.21c-0.34,0.13-0.66,0.34-0.9,0.66c-0.21,0.28-0.33,0.59-0.38,0.91c-7.15,1.15-14.77,2.77-21.44,6.56
		c-0.96,0.55-1.3,1.77-0.75,2.73c0.37,0.65,1.04,1.01,1.74,1.01c0.33,0,0.67-0.08,0.99-0.26c6.85-3.89,14.77-5.29,22.55-6.47
		c3.77,2.53,7.92,4.5,12.25,5.83c-8.96,1.7-17.8,5.08-24.67,12.64c-0.74,0.82-0.68,2.08,0.14,2.83c0.38,0.35,0.86,0.52,1.34,0.52
		c0.54,0,1.09-0.22,1.48-0.66c9.21-10.15,22.86-12,34.92-12.93c0.36-0.03,0.69-0.16,0.96-0.35c0.21,0,0.43,0.01,0.64,0.01
		c2.83,0.03,5.51,0.06,8.09,0.65c3.49,0.8,6.67,2.59,10.05,4.49c3.18,1.79,6.48,3.64,10.13,4.66c5.9,1.64,11.94,0.92,17.77,0.22
		c1.65-0.2,3.35-0.4,5-0.54c9.82-0.84,15.45,1.34,19.4,7.54c0.8,1.26,1.61,2.5,2.4,3.72c4.33,6.66,8.42,12.96,10.58,20.87
		c0.04,0.49,0.08,0.98,0.11,1.5v16.09c0,1.1,0.9,2,2,2s2-0.9,2-2v-16.17c0-0.02-0.01-0.04-0.01-0.06c0-0.02,0-0.05,0-0.07
		c0-0.01,0-0.02,0-0.03c0,0,0-0.01,0-0.01c0.3-4.62,1.05-7.83,2.25-11.8c0.2-0.68,1.3-3.4,2.26-5.8c0.5-1.25,0.93-2.32,1.28-3.21
		l20.9-20.25h73.89c1.1,0,2-0.9,2-2S275.15,131.93,274.05,131.93z M264.62,107.02c0-2.77,2.26-5.03,5.03-5.03s5.03,2.26,5.03,5.03
		s-2.26,5.03-5.03,5.03S264.62,109.79,264.62,107.02z M267.62,107.02c0,1.12,0.91,2.03,2.03,2.03s2.03-0.91,2.03-2.03
		s-0.91-2.03-2.03-2.03S267.62,105.9,267.62,107.02z M171.48,32.53c1.1,0,2-0.9,2-2V14.94c0-1.1-0.9-2-2-2s-2,0.9-2,2v15.59
		C169.48,31.64,170.37,32.53,171.48,32.53z M173.48,71.56c0-1.1-0.9-2-2-2s-2,0.9-2,2v15.59c0,1.1,0.9,2,2,2s2-0.9,2-2v-5.31
		l31.56-26.56h34.95c1.1,0,2-0.9,2-2s-0.9-2-2-2h-18.48l8.36-7.04c0.84-0.71,0.95-1.97,0.24-2.82c-0.71-0.85-1.97-0.95-2.82-0.24
		l-9.71,8.17V39.24c0-1.1-0.9-2-2-2s-2,0.9-2,2v12.05h-8.83c-0.58-0.11-1.19,0.02-1.68,0.42l-29.6,24.91V71.56z M171.48,130.6
		c-1.1,0-2,0.9-2,2v15.59c0,1.1,0.9,2,2,2s2-0.9,2-2V132.6C173.48,131.5,172.58,130.6,171.48,130.6z M171.48,43.08
		c1.26,0,2.28-1.02,2.28-2.28s-1.02-2.28-2.28-2.28s-2.28,1.02-2.28,2.28S170.22,43.08,171.48,43.08z M171.48,53.33
		c0.94,0,1.75-0.57,2.1-1.39l22.54-18.83c0.85-0.71,0.96-1.97,0.25-2.82s-1.97-0.96-2.82-0.25l-1.79,1.49v-4.15c0-1.1-0.9-2-2-2
		s-2,0.9-2,2v7.49l-16.69,13.94c-1.06,0.19-1.87,1.12-1.87,2.24C169.2,52.3,170.22,53.33,171.48,53.33z M171.48,63.57
		c1.26,0,2.28-1.02,2.28-2.28s-1.02-2.28-2.28-2.28s-2.28,1.02-2.28,2.28S170.22,63.57,171.48,63.57z M171.48,125.61
		c1.26,0,2.28-1.02,2.28-2.28s-1.02-2.28-2.28-2.28s-2.28,1.02-2.28,2.28S170.22,125.61,171.48,125.61z M202.19,142.98l7.23,7.24
		l-7.23,7.23l-7.24-7.23L202.19,142.98z M205.18,150.22l-2.99-2.99l-3,2.99l3,2.99L205.18,150.22z M225.16,213.65v10.24h-10.23
		v-10.24H225.16z M222.16,216.65h-4.23v4.24h4.23V216.65z M177.31,206.37c0,3.21-2.62,5.83-5.84,5.83c-3.21,0-5.83-2.62-5.83-5.83
		c0-3.22,2.62-5.84,5.83-5.84C174.69,200.53,177.31,203.15,177.31,206.37z M174.31,206.37c0-1.56-1.28-2.84-2.84-2.84
		s-2.83,1.28-2.83,2.84s1.27,2.83,2.83,2.83S174.31,207.93,174.31,206.37z"/>
</g>
</svg>
